<?xml version="1.0" encoding="utf-8"?>
<!-- Generator: Adobe Illustrator 18.1.1, SVG Export Plug-In . SVG Version: 6.00 Build 0)  -->
<!DOCTYPE svg PUBLIC "-//W3C//DTD SVG 1.1//EN" "http://www.w3.org/Graphics/SVG/1.1/DTD/svg11.dtd">
<svg version="1.1" id="Layer_1" xmlns="http://www.w3.org/2000/svg" xmlns:xlink="http://www.w3.org/1999/xlink" x="0px" y="0px"
	 viewBox="0 0 60 50" enable-background="new 0 0 60 50" xml:space="preserve">
<path fill="#0084D7" d="M40,0C29,0,20,9,20,20c0,11,9,20,20,20h20V20C60,9,51,0,40,0z"/>
<rect x="30" y="12" fill="#FFFFFF" width="20" height="4"/>
<rect x="30" y="18" fill="#FFFFFF" width="20" height="4"/>
<rect x="30" y="24" fill="#FFFFFF" width="20" height="4"/>
<path fill="#FFFFFF" d="M20,10C9,10,0,19,0,30v20h20c11,0,20-9,20-20C40,19,31,10,20,10z"/>
<rect x="10" y="22" fill="#0084D7" width="20" height="4"/>
<rect x="10" y="28" fill="#0084D7" width="20" height="4"/>
<rect x="10" y="34" fill="#0084D7" width="10" height="4"/>
</svg>
